HIERARCHY
ROOT Hips
{
	OFFSET 0.000000 0.000000 0.000000
	CHANNELS 6 Xposition Yposition Zposition Zrotation Yrotation Xrotation 
	JOINT LHipJoint
	{
		OFFSET 0.000000 0.000000 0.000000
		CHANNELS 3 Zrotation Yrotation Xrotation
		JOINT LeftUpLeg
		{
			OFFSET 1.363060 -1.794630 0.839290
			CHANNELS 3 Zrotation Yrotation Xrotation
			JOINT LeftLeg
			{
				OFFSET 2.448110 -6.726130 0.000000
				CHANNELS 3 Zrotation Yrotation Xrotation
				JOINT LeftFoot
				{
					OFFSET 2.562200 -7.039590 0.000000
					CHANNELS 3 Zrotation Yrotation Xrotation
					JOINT LeftToeBase
					{
						OFFSET 0.157640 -0.433110 2.322550
						CHANNELS 3 Zrotation Yrotation Xrotation
						End Site
						{
							OFFSET 0.000000 0.000000 0.000000
						}
					}
				}
			}
		}
	}
	JOINT RHipJoint
	{
		OFFSET 0.000000 0.000000 0.000000
		CHANNELS 3 Zrotation Yrotation Xrotation
		JOINT RightUpLeg
		{
			OFFSET -1.305520 -1.794630 0.839290
			CHANNELS 3 Zrotation Yrotation Xrotation
			JOINT RightLeg
			{
				OFFSET -2.542530 -6.985550 0.000000
				CHANNELS 3 Zrotation Yrotation Xrotation
				JOINT RightFoot
				{
					OFFSET -2.568260 -7.056230 0.000000
					CHANNELS 3 Zrotation Yrotation Xrotation
					JOINT RightToeBase
					{
						OFFSET -0.164730 -0.452590 2.363150
						CHANNELS 3 Zrotation Yrotation Xrotation
						End Site
						{
							OFFSET 0.000000 0.000000 0.000000
						}
					}
				}
			}
		}
	}
	JOINT LowerBack
	{
		OFFSET 0.000000 0.000000 0.000000
		CHANNELS 3 Zrotation Yrotation Xrotation
		JOINT Spine
		{
			OFFSET 0.028270 2.035590 -0.193380
			CHANNELS 3 Zrotation Yrotation Xrotation
			JOINT Spine1
			{
				OFFSET 0.056720 2.048850 -0.042750
				CHANNELS 3 Zrotation Yrotation Xrotation
				JOINT Neck
				{
					OFFSET 0.000000 0.000000 0.000000
					CHANNELS 3 Zrotation Yrotation Xrotation
					JOINT Neck1
					{
						OFFSET -0.054170 1.746240 0.172020
						CHANNELS 3 Zrotation Yrotation Xrotation
						JOINT Head
						{
							OFFSET 0.104070 1.761360 -0.123970
							CHANNELS 3 Zrotation Yrotation Xrotation
							End Site
							{
								OFFSET 0.000000 0.000000 0.000000
							}
						}
					}
				}
				JOINT LeftShoulder
				{
					OFFSET 0.000000 0.000000 0.000000
					CHANNELS 3 Zrotation Yrotation Xrotation
					JOINT LeftArm
					{
						OFFSET 3.362410 1.200890 -0.311210
						CHANNELS 3 Zrotation Yrotation Xrotation
						JOINT LeftForeArm
						{
							OFFSET 4.983000 -0.000000 -0.000000
							CHANNELS 3 Zrotation Yrotation Xrotation
							JOINT LeftHand
							{
								OFFSET 3.483560 -0.000000 -0.000000
								CHANNELS 3 Zrotation Yrotation Xrotation
								JOINT LeftFingerBase
								{
									OFFSET 0.000000 0.000000 0.000000
									CHANNELS 3 Zrotation Yrotation Xrotation
									JOINT LeftHandIndex1
									{
										OFFSET 0.715260 -0.000000 -0.000000
										CHANNELS 3 Zrotation Yrotation Xrotation
										End Site
										{
											OFFSET 0.000000 0.000000 0.000000
										}
									}
								}
								JOINT LThumb
								{
									OFFSET 0.000000 0.000000 0.000000
									CHANNELS 3 Zrotation Yrotation Xrotation
									End Site
									{
										OFFSET 0.000000 0.000000 0.000000
									}
								}
							}
						}
					}
				}
				JOINT RightShoulder
				{
					OFFSET 0.000000 0.000000 0.000000
					CHANNELS 3 Zrotation Yrotation Xrotation
					JOINT RightArm
					{
						OFFSET -3.136600 1.374050 -0.404650
						CHANNELS 3 Zrotation Yrotation Xrotation
						JOINT RightForeArm
						{
							OFFSET -5.241900 -0.000000 -0.000000
							CHANNELS 3 Zrotation Yrotation Xrotation
							JOINT RightHand
							{
								OFFSET -3.444170 -0.000000 -0.000000
								CHANNELS 3 Zrotation Yrotation Xrotation
								JOINT RightFingerBase
								{
									OFFSET 0.000000 0.000000 0.000000
									CHANNELS 3 Zrotation Yrotation Xrotation
									JOINT RightHandIndex1
									{
										OFFSET -0.622530 -0.000000 -0.000000
										CHANNELS 3 Zrotation Yrotation Xrotation
										End Site
										{
											OFFSET 0.000000 0.000000 0.000000
										}
									}
								}
								JOINT RThumb
								{
									OFFSET 0.000000 0.000000 0.000000
									CHANNELS 3 Zrotation Yrotation Xrotation
									End Site
									{
										OFFSET 0.000000 0.000000 0.000000
									}
								}
							}
						}
					}
				}
			}
		}
	}
}
MOTION
Frames: 7
Frame Time: 0.008333
-0.456156 19.330607 3.500728 169.448714 -85.278952 -168.685454 -3.673466 2.759385 3.005601 -18.081801 -5.888446 -6.455285 0.509004 7.683456 23.227396 -1.555930 14.506312 24.854249 2.269300 -9.405800 -27.073200 2.277622 -2.571224 1.602749 5.915588 8.755513 -16.517333 -4.933224 -13.370325 39.090089 1.445569 -18.821663 27.134896 -0.820800 -5.780700 16.149300 -1.721002 0.100406 1.530469 3.472571 -0.796443 -5.716722 11.234039 0.227039 -6.945577 -13.881179 -4.256956 -23.191989 13.283588 -0.100006 -12.310053 6.854300 0.373700 3.647000 -1.083819 -3.523300 -0.665445 57.323322 -24.738133 -70.299254 8.173135 -18.335465 -1.567596 -2.040917 -3.410333 18.878852 12.202553 29.357779 7.240400 -7.125000 0.000000 0.000000 -23.445200 62.373800 -10.198900 1.761837 5.993363 0.305541 -49.058278 17.372586 -58.370852 -23.163575 36.013127 -9.936180 2.185191 0.655990 5.490010 -34.469460 7.147212 -4.400800 7.125000 0.000000 0.000000 -7.232300 -22.601300 -3.927800 
-0.456971 19.351503 3.449353 170.498022 -85.196783 -169.691379 -3.685266 2.733243 2.984904 -17.762287 -5.721721 -6.893243 0.584761 7.804491 23.502723 -1.454960 14.644106 25.641318 2.272500 -9.412000 -27.092800 2.364961 -2.580836 1.624536 6.445903 8.988630 -16.339387 -4.872203 -13.281797 38.789799 1.695962 -19.488424 26.556659 -0.917700 -6.103700 17.085700 -1.670068 0.173924 1.479034 3.285555 -0.691219 -5.825489 10.614626 0.298105 -7.222092 -13.594263 -4.474882 -22.922255 13.436383 -0.471835 -12.474010 6.831200 0.188100 3.625100 -1.077714 -3.552651 -0.684560 57.801780 -25.030683 -70.011394 8.302089 -18.461076 -1.592054 -1.977120 -3.358152 18.674978 12.116628 29.101230 7.112600 -7.125000 0.000000 0.000000 -23.265500 62.049600 -9.937900 1.565444 6.058659 0.304366 -50.776740 18.116778 -60.934909 -21.336110 34.683329 -8.755920 2.266642 0.610942 6.282754 -34.153797 7.026921 -4.282000 7.125000 0.000000 0.000000 -7.070000 -22.758300 -3.812800 
-0.457889 19.365876 3.394309 170.262481 -85.171439 -169.424627 -3.679155 2.709046 2.956779 -17.549845 -5.495818 -7.382099 0.665589 7.941085 23.843190 -1.267968 14.555377 26.602550 2.343400 -9.547400 -27.523200 2.454380 -2.584156 1.653769 6.836549 9.220849 -16.080772 -4.788585 -13.170861 38.424269 1.819099 -19.870631 26.354172 -0.812100 -5.750800 16.063100 -1.703729 0.208738 1.428819 3.116861 -0.649168 -5.910012 10.146462 0.336895 -7.417403 -13.500129 -4.860265 -23.036971 13.594699 -0.961081 -12.561949 6.842000 -0.046300 3.704300 -1.061731 -3.559386 -0.705157 58.270979 -25.246205 -69.973323 8.365210 -18.505492 -1.598985 -1.944581 -3.303885 18.571371 12.195259 28.911684 7.104700 -7.125000 0.000000 0.000000 -22.958600 61.838900 -9.684600 1.366636 6.107243 0.305821 -52.691459 18.835980 -63.611988 -19.613250 33.369187 -7.677497 2.354575 0.586324 6.788160 -33.892136 6.873718 -4.140000 7.125000 0.000000 0.000000 -6.958500 -22.967100 -3.718300 
-0.456563 19.377904 3.338958 170.241571 -85.213076 -169.368077 -3.680604 2.694815 2.916380 -17.267155 -5.470385 -7.836961 0.767533 8.105594 24.211093 -1.137198 14.781221 27.579089 2.303400 -9.471400 -27.281300 2.533542 -2.592687 1.697699 7.266957 9.321903 -15.793081 -4.697430 -13.053059 38.058736 2.082023 -20.373520 25.582981 -0.559300 -4.790400 13.311800 -1.723890 0.178069 1.405598 3.005452 -0.695244 -5.998821 9.936269 0.326288 -7.616970 -14.219843 -5.341582 -23.307310 14.236601 -1.235343 -12.348056 7.208400 -0.126300 3.894300 -1.056939 -3.510505 -0.726305 58.362727 -25.268931 -69.172502 8.495350 -18.599668 -1.621740 -1.908010 -3.291081 17.984532 12.318243 28.722208 7.134700 -7.125000 0.000000 0.000000 -22.620400 61.669700 -9.442900 1.166521 6.184353 0.322436 -54.789432 19.465723 -65.881885 -18.140091 32.190175 -6.763157 2.442354 0.644857 6.672524 -33.624449 6.244070 -3.616000 7.125000 0.000000 0.000000 -6.902700 -23.824800 -3.551000 
-0.451569 19.390340 3.281060 170.254042 -85.207347 -169.374905 -3.676055 2.684429 2.880058 -16.961875 -5.326578 -8.349004 0.885596 8.286603 24.615961 -1.028419 15.108187 28.501080 2.164400 -9.200500 -26.424500 2.611998 -2.606045 1.746581 7.686508 9.613901 -15.393352 -4.601610 -12.930208 37.712179 2.521550 -21.046478 24.093819 -0.398600 -4.053500 11.227100 -1.777621 0.301841 1.489048 2.872544 -0.532158 -6.147138 9.611885 0.434526 -8.078322 -15.138630 -5.812743 -23.156646 14.846508 -1.476941 -12.147033 7.588500 -0.201800 4.020900 -1.096143 -3.477627 -0.759391 58.776599 -25.679467 -69.122692 8.515663 -18.618534 -1.618540 -1.844265 -3.249617 18.106943 12.001319 28.559547 6.886800 -7.125000 0.000000 0.000000 -22.826500 61.381800 -9.377900 0.997361 6.288647 0.345685 -56.540027 19.986678 -67.598222 -16.816076 31.024406 -5.955870 2.534332 0.734130 6.605510 -33.488350 5.284666 -2.853100 7.125000 0.000000 0.000000 -6.979700 -25.111500 -3.381800 
-0.446982 19.398087 3.220715 170.321452 -85.135502 -169.411881 -3.661535 2.664283 2.850257 -16.649889 -4.985342 -8.997335 1.000341 8.469183 25.062908 -0.846483 15.146342 29.462544 2.126500 -9.124700 -26.186200 2.693552 -2.617377 1.791540 8.062561 10.149986 -14.923307 -4.492744 -12.794163 37.348372 2.962814 -21.651326 22.500673 -0.408100 -4.101100 11.361200 -1.776879 0.550903 1.535518 2.682214 -0.197017 -6.343207 9.034155 0.626294 -8.679145 -16.065064 -6.540880 -22.634432 15.667743 -2.076022 -12.003553 7.987200 -0.462200 4.149500 -1.180683 -3.449537 -0.802044 59.553940 -26.398914 -69.309615 8.511565 -18.627942 -1.606616 -1.788201 -3.192397 18.069586 11.969303 28.535801 6.833000 -7.125000 0.000000 0.000000 -22.814000 61.280800 -9.317600 0.847327 6.429014 0.387300 -57.975427 20.636960 -69.667088 -15.491221 29.809070 -5.213946 2.604224 0.756460 7.284933 -33.198957 4.743307 -2.403300 7.125000 0.000000 0.000000 -6.867300 -25.851100 -3.207400 
-0.443312 19.400228 3.160267 169.460978 -85.127805 -168.497225 -3.632027 2.630223 2.814329 -16.389379 -4.607378 -9.706779 1.095163 8.642050 25.545813 -0.499608 14.638224 30.686621 2.230900 -9.331300 -26.837300 2.773250 -2.625423 1.838245 8.325703 10.674207 -14.436484 -4.364180 -12.642822 36.933518 3.234292 -21.905272 21.393221 -0.473000 -4.410900 12.235500 -1.900349 0.651775 1.527888 2.461168 -0.081588 -6.494665 8.499339 0.707952 -9.073529 -16.192721 -6.831837 -22.324170 15.877808 -2.419256 -11.978969 8.062400 -0.626500 4.195500 -1.220388 -3.436203 -0.836420 60.163162 -26.723963 -68.404257 8.689984 -18.776185 -1.634968 -1.747776 -3.162083 17.031047 12.461827 28.463980 7.098600 -7.125000 0.000000 0.000000 -22.142000 61.292000 -9.033300 0.721518 6.487011 0.409419 -59.526988 21.354608 -72.153962 -14.238283 28.645434 -4.549573 2.675797 0.713371 8.047103 -33.090455 4.851575 -2.473000 7.125000 0.000000 0.000000 -6.822000 -25.727600 -3.205800 
